# xmcd
#
# Track frame offsets: 
#        150
#        17232
#        33475
#        49402
#        61527
#        76967
#        91317
#        102957
#        119417
#        133292
#        148720
#        159934
#        175697
#        192334
#
# Disc length: 2745 seconds
#
# Revision: 0
# Processed by: cddbd v1.5.2PL0 Copyright (c) Steve Scherf et al.
# Submitted via: ExactAudioCopy v0.99pb3
#
DISCID=ba0ab70e
DTITLE=ดำรง  วงศ์ทอง - รวมฮิต 14 เพลงหวาน
DYEAR=2000
DGENRE=Country
TTITLE0=โปรดพิจารณา
TTITLE1=ยังรักเสมอ
TTITLE2=หนุ่มนาสัญญารัก
TTITLE3=ทหารคนจน
TTITLE4=ปลอบขวัญคนดี
TTITLE5=สว'ีแต่ขึ้โกหก
TTITLE6=แฟนเขาทั้งนั้น
TTITLE7=น.ส.เฮเลน
TTITLE8=เดือนครึ่งดวง
TTITLE9=โขงเจียมโขงใจ
TTITLE10=กำพร้าเมีย
TTITLE11=ไม่รักไม่ว่า
TTITLE12=บัวเผื่อน
TTITLE13=แขกโต๊ะสุดท้าย
EXTD=
EXTT0=
EXTT1=
EXTT2=
EXTT3=
EXTT4=
EXTT5=
EXTT6=
EXTT7=
EXTT8=
EXTT9=
EXTT10=
EXTT11=
EXTT12=
EXTT13=
PLAYORDER=
